<svg id="Capa_1" enable-background="new 0 0 512 512" height="512" viewBox="0 0 512 512" width="512" xmlns="http://www.w3.org/2000/svg"><g><g><g><path d="m325.729 216.722c-2.485 0-4.5-2.015-4.5-4.5 0-25.622 39.456-81.312 70.427-82.705l.206-.009.206.01c7.196.335 12.694 3.326 15.799 8.511 9.518-4.595 19.97-8.944 30.238-13.007l2.601-1.031c2.311-.919 4.926.207 5.846 2.516.919 2.309-.207 4.926-2.516 5.846l-2.619 1.039c-6.94 2.746-19.119 7.566-30.86 13.31.959 10.393-4.22 22.836-10.821 29.243-4.372 4.262-14.026 8.084-20.878 6.742-3.393-.665-5.937-2.578-7.163-5.389-1.577-3.614-1.561-7.583.046-11.478 3.452-8.368 14.215-16.318 28.047-23.698-1.592-2.207-4.209-3.391-7.931-3.602-10.887.617-26.135 11.614-39.863 28.767-13.018 16.267-21.765 34.325-21.765 44.937 0 2.483-2.014 4.498-4.5 4.498zm54.191-43.079c1.522 1.076 9.811-.515 13.54-4.151 4.041-3.922 7.524-11.475 8.141-18.151-10.389 5.737-19.11 12.02-21.54 17.91-.878 2.128-.512 3.52-.141 4.392z" fill="#ffdbcf"/></g><path d="m385.36 162.365c-2.51 2.32-4.37 4.63-5.3 6.89-.49 1.18-.59 2.13-.52 2.9-1.42-4.9-4.2-7.85-6.19-9.42 1.34-2.14 3.15-4.26 5.35-6.35z" fill="#ffccb7"/><path d="m286.817 100.969-123.658 123.658c-3.905 3.905-10.237 3.905-14.142 0l-58.804-58.804c-3.905-3.905-3.905-10.237 0-14.142l123.658-123.659c3.905-3.905 10.237-3.905 14.142 0l58.804 58.804c3.906 3.906 3.906 10.237 0 14.143z" fill="#7f392c"/><path d="m286.82 100.965-123.66 123.66c-3.91 3.91-10.24 3.91-14.14 0l-29.28-29.28c1.19.05 2.38.07 3.58.07 60.14 0 108.89-48.75 108.89-108.89 0-21.84-6.44-42.19-17.52-59.24 3.93-3.15 9.68-2.91 13.32.74l58.81 58.8c3.9 3.91 3.9 10.24 0 14.14z" fill="#6d281f"/><path d="m192.647 49.248-60.709 60.71c-6.766 6.766-6.766 17.735 0 24.501l.247.247c6.766 6.766 17.736 6.766 24.502-.001l60.704-60.709c6.751-6.751 6.744-17.699-.016-24.441l-.323-.322c-6.746-6.729-17.667-6.722-24.405.015z" fill="#a1412b"/><path d="m191.908 99.481 10.297-10.298c6.769-6.77 6.764-17.748-.012-24.512-.083-.082-.165-.165-.248-.247-6.767-6.755-17.728-6.748-24.488.013l-10.297 10.297c-6.749 6.749-6.773 17.691-.042 24.458.09.09.179.18.269.27 6.757 6.791 17.748 6.793 24.521.019z" fill="#b55434"/><g><path d="m250.054 77.003 14.289 14.289 14.289-14.289c18.629-18.629 48.832-18.629 67.461 0 18.629 18.629 18.629 48.832 0 67.461l-73.508 73.508c-4.552 4.552-11.932 4.552-16.483 0l-73.508-73.508c-18.629-18.629-18.629-48.832 0-67.461 18.628-18.629 48.831-18.629 67.46 0z" fill="#fe255f"/><path d="m360.067 110.728c0 12.225-4.651 24.431-13.971 33.733l-73.514 73.514c-4.541 4.541-11.931 4.541-16.49 0l-56.16-56.179c10.129 3.787 21.085 5.864 32.538 5.864 51.362 0 93-41.638 93-92.982 0-3.364-.184-6.691-.533-9.964 7.739 2.096 15.074 6.195 21.159 12.28 9.32 9.321 13.971 21.528 13.971 33.734z" fill="#e01152"/><circle cx="217.037" cy="86.527" fill="#fc709b" r="23.496"/></g><g><g><path d="m282.932 211.295c-19.838-8.169-35.365-34.437-31.949-54.05 2.097-12.039 10.951-19.294 24.292-19.905.793-.037 1.599-.041 2.412-.014 8.428-20.964 34.063-16.927 51.27-14.217 2.75.433 5.348.842 7.718 1.14 2.194.275 4.388.398 6.562.367-4.705-11.559-5.672-25.685.413-34.809 3.136-4.702 10.865-11.855 27.399-6.956 8.163 2.419 13.964 7.735 15.917 14.585 1.852 6.498-.109 13.622-5.381 19.544-6.162 6.923-14.511 11.916-23.787 14.536 4.602 5.363 10.198 9.98 16.099 14.849 10.216 8.429 20.78 17.146 26.176 30.28 5.053 12.302 2.698 26.315-5.728 34.077l-6.098-6.619c6.667-6.142 6.488-16.766 3.5-24.038-4.539-11.048-13.787-18.679-23.579-26.758-6.396-5.277-13.009-10.733-18.354-17.309-.674-.83-1.325-1.709-1.95-2.631-4.051.382-8.185.33-12.313-.188-2.51-.315-5.175-.735-7.998-1.179-19.149-3.016-34.52-4.389-40.628 6.806 10.982 3.046 21.484 10.338 24.49 18.081 1.777 4.577.727 8.927-2.882 11.936-3.759 3.134-9.861 2.379-16.737-2.07-6.184-4-14.113-12.029-15.431-20.441-.228.003-.455.01-.681.02-9.143.419-14.471 4.61-15.838 12.458-2.449 14.06 8.83 36.904 26.509 44.184zm3.364-63.253c.979 2.034 2.57 4.259 4.653 6.41 5.042 5.206 10.417 7.475 12.005 7.3.314-.292.46-.612.074-1.608-1.513-3.897-8.647-9.351-16.732-12.102zm74.423-57.849c-4.325 0-7.533 1.539-9.581 4.609-4.313 6.467-3.396 18.854 1.415 28.766 8.761-1.886 16.678-6.243 22.311-12.571 3.229-3.627 4.454-7.567 3.448-11.093-1.091-3.827-4.67-6.897-9.819-8.423-2.898-.86-5.492-1.288-7.774-1.288z" fill="#7f392c"/></g></g><path d="m394.35 210.725-6.1-6.62c6.67-6.14 6.49-16.77 3.5-24.04-.59-1.43-1.25-2.8-1.99-4.12l7.63-4.79c.99 1.74 1.89 3.57 2.68 5.49 5.06 12.3 2.7 26.31-5.72 34.08z" fill="#6d281f"/><path d="m380.14 151.595c-3.92.74-7.19 2.09-9.77 3.53-.73-.6-1.46-1.21-2.2-1.82-1.39-1.15-2.8-2.31-4.19-3.48l6.6-6.21c1.09.91 2.2 1.82 3.32 2.75 2.08 1.72 4.18 3.45 6.24 5.23z" fill="#6d281f"/><path d="m446.907 187.129c-8.315.109-15.761 3.803-20.876 9.602-5.193-5.887-12.787-9.604-21.254-9.604s-16.061 3.718-21.254 9.604c-5.193-5.887-12.787-9.604-21.254-9.604s-16.061 3.718-21.254 9.604c-5.193-5.887-12.787-9.604-21.254-9.604s-16.061 3.718-21.254 9.604c-5.193-5.887-12.787-9.604-21.254-9.604s-16.061 3.718-21.254 9.604c-5.193-5.887-12.787-9.604-21.254-9.604s-16.061 3.718-21.254 9.604c-5.193-5.887-12.787-9.604-21.254-9.604s-16.061 3.718-21.254 9.604c-5.193-5.887-12.787-9.604-21.254-9.604s-16.061 3.718-21.254 9.604c-5.193-5.887-12.787-9.604-21.254-9.604s-16.061 3.718-21.254 9.604c-5.115-5.799-12.561-9.493-20.876-9.602-15.793-.206-28.716 13.172-28.716 28.967v17.852c0 9.357 7.585 16.942 16.942 16.942h405.363c9.357 0 16.942-7.585 16.942-16.942v-17.852c.002-15.794-12.921-29.173-28.715-28.967z" fill="#fc709b"/><path d="m446.907 207.344c-6.026.079-11.595 2.041-16.152 5.322-2.849 2.052-6.639 2.015-9.492-.032-4.644-3.331-10.335-5.293-16.486-5.293-6.15 0-11.839 1.961-16.483 5.291-2.871 2.059-6.671 2.059-9.542 0-4.643-3.329-10.333-5.291-16.483-5.291s-11.839 1.961-16.483 5.291c-2.871 2.059-6.671 2.059-9.542 0-4.643-3.329-10.333-5.291-16.483-5.291s-11.839 1.961-16.483 5.291c-2.871 2.059-6.671 2.059-9.542 0-4.643-3.329-10.333-5.291-16.483-5.291s-11.839 1.961-16.483 5.291c-2.871 2.059-6.671 2.059-9.542 0-4.643-3.329-10.333-5.291-16.483-5.291s-11.839 1.961-16.483 5.291c-2.871 2.059-6.671 2.059-9.542 0-4.643-3.329-10.333-5.291-16.483-5.291s-11.839 1.961-16.483 5.291c-2.871 2.059-6.671 2.059-9.542 0-4.643-3.329-10.333-5.291-16.483-5.291s-11.839 1.961-16.483 5.291c-2.871 2.059-6.671 2.059-9.542 0-4.643-3.329-10.333-5.291-16.483-5.291-6.151 0-11.842 1.962-16.486 5.293-2.853 2.046-6.643 2.083-9.492.032-4.557-3.281-10.126-5.243-16.152-5.322-15.793-.207-28.717 13.172-28.717 28.967v17.852c0 9.357 7.585 16.942 16.942 16.942h405.363c9.357 0 16.942-7.585 16.942-16.942v-17.852c.003-15.795-12.921-29.174-28.714-28.967z" fill="#f7a6c1"/><path d="m475.62 216.095v17.85c0 .36-.01.71-.04 1.06-.68-15.22-13.32-27.86-28.67-27.66-6.124.081-11.772 2.102-16.368 5.476-2.69 1.975-6.315 1.989-9.003.013-4.694-3.452-10.49-5.489-16.759-5.489-6.277 0-12.071 2.038-16.766 5.49-2.682 1.971-6.303 1.97-8.984-.002-4.691-3.451-10.484-5.488-16.76-5.488s-12.069 2.037-16.76 5.488c-2.681 1.972-6.302 1.973-8.984.002-4.696-3.452-10.49-5.49-16.766-5.49-6.268 0-12.065 2.037-16.758 5.488-2.681 1.972-6.302 1.972-8.983 0-4.694-3.451-10.493-5.488-16.768-5.488-6.268 0-12.065 2.037-16.758 5.488-2.681 1.972-6.302 1.972-8.983 0-4.694-3.451-10.49-5.488-16.758-5.488-6.276 0-12.074 2.037-16.768 5.488-2.681 1.971-6.302 1.971-8.983 0-4.694-3.451-10.49-5.488-16.758-5.488-6.277 0-12.071 2.038-16.766 5.49-2.682 1.971-6.303 1.97-8.984-.002-4.691-3.451-10.484-5.488-16.76-5.488s-12.068 2.037-16.76 5.488c-2.681 1.972-6.302 1.973-8.984.002-4.696-3.452-10.489-5.49-16.766-5.49-6.269 0-12.065 2.037-16.759 5.489-2.688 1.977-6.313 1.962-9.003-.013-4.596-3.374-10.244-5.395-16.368-5.476-15.35-.2-27.99 12.44-28.67 27.66-.03-.35-.04-.7-.04-1.06v-17.85c0-15.79 12.92-29.17 28.71-28.97 8.32.11 15.76 3.81 20.88 9.61 5.19-5.89 12.79-9.61 21.25-9.61 8.47 0 16.06 3.72 21.26 9.61 5.19-5.89 12.78-9.61 21.25-9.61s16.06 3.72 21.25 9.61c5.2-5.89 12.79-9.61 21.26-9.61 8.46 0 16.06 3.72 21.25 9.61 5.19-5.89 12.79-9.61 21.26-9.61 8.46 0 16.06 3.72 21.25 9.61 5.19-5.89 12.79-9.61 21.25-9.61 8.47 0 16.07 3.72 21.26 9.61 5.19-5.89 12.79-9.61 21.25-9.61 8.47 0 16.06 3.72 21.26 9.61 5.19-5.89 12.78-9.61 21.25-9.61s16.06 3.72 21.25 9.61c5.2-5.89 12.79-9.61 21.26-9.61 8.46 0 16.06 3.72 21.25 9.61 5.12-5.8 12.56-9.5 20.88-9.61 15.787-.2 28.707 13.18 28.707 28.97z" fill="#fc709b"/><path d="m36.376 226.251h439.247v242.6h-439.247z" fill="#ef927d"/><path d="m36.376 356.223h439.247v47.839h-439.247z" fill="#db765a"/><path d="m475.62 226.255v242.6h-264.43c117.92-20.84 208.62-120.49 215.75-242.6z" fill="#db765a"/><path d="m475.62 337.485v131.37h-141.68c68.8-12.77 123.93-64.46 141.68-131.37z" fill="#b55434"/><path d="m36.376 226.251h439.247v51.946h-439.247z" fill="#a1412b"/><path d="m36.376 305.016h439.247v85.53h-439.247z" fill="#a1412b"/><path d="m475.62 278.198v-51.942h-48.68c-1.042 17.853-3.872 35.226-8.312 51.942z" fill="#7f392c"/><path d="m475.62 305.015v85.53h-119.63c23.13-24.52 41.58-53.51 53.93-85.53z" fill="#7f392c"/><path d="m475.62 337.485v53.06h-23.82c10.63-16.08 18.75-33.94 23.82-53.06z" fill="#6d281f"/><path d="m36.376 328.936h439.247v39.383h-439.247z" fill="#fc709b"/><path d="m254.79 328.936h-148.497c-9.498 0-17.199 7.7-17.199 17.199 0 9.499 7.7 17.199 17.199 17.199h148.497c9.499 0 17.199-7.7 17.199-17.199 0-9.499-7.7-17.199-17.199-17.199z" fill="#f7a6c1"/><path d="m199.171 328.936h-58.497c-9.498 0-17.199 7.7-17.199 17.199 0 9.499 7.7 17.199 17.199 17.199h58.497c9.498 0 17.199-7.7 17.199-17.199 0-9.499-7.7-17.199-17.199-17.199z" fill="#ffc2d9"/><path d="m475.62 328.935v39.38h-100.87c9.29-12.32 17.51-25.5 24.53-39.38z" fill="#fe255f"/><path d="m475.62 337.485v30.83h-11.28c4.65-9.82 8.44-20.13 11.28-30.83z" fill="#e01152"/><path d="m36.376 226.251h439.247v35.275h-439.247z" fill="#ffdbcf"/><path d="m304.125 226.251h-218.898c-9.741 0-17.638 7.897-17.638 17.638 0 9.741 7.897 17.638 17.638 17.638h218.899c9.741 0 17.638-7.897 17.638-17.638-.001-9.741-7.898-17.638-17.639-17.638z" fill="#ffece6"/><path d="m227.293 226.251h-100.51c-9.741 0-17.638 7.897-17.638 17.638 0 9.741 7.897 17.638 17.638 17.638h100.51c9.741 0 17.638-7.897 17.638-17.638 0-9.741-7.897-17.638-17.638-17.638z" fill="#fff7f5"/><path d="m475.62 261.526v-35.271h-48.68c-.7 11.993-2.218 23.765-4.477 35.271z" fill="#ffccb7"/><g><path d="m396.569 165.594c-.966 1.504-2.016 2.837-3.109 3.898-1.741 1.697-4.472 2.942-7.048 3.684 1.227 2.746 2.35 5.547 3.43 8.362 3.964-1.316 7.635-3.394 9.893-5.595.939-.911 1.844-1.955 2.711-3.087-1.999-2.39-3.972-4.803-5.877-7.262z" fill="#ffdbcf"/></g><g><path d="m364.25 153.969c4.577-4.28 9.131-7.788 13.467-10.373-2.388-2.029-4.706-4.138-6.942-6.34-4.628 3.002-9.214 6.739-13.623 10.96 2.384 1.898 4.751 3.815 7.098 5.753z" fill="#ffdbcf"/></g><path d="m407.09 164.965c-.72-3.46-2.46-7.05-6.38-8.85.44-1.6.74-3.21.89-4.77l8.96-4.64c.55 5.92-.9 12.5-3.47 18.26z" fill="#ffccb7"/><g fill="#6d281f"><path d="m365.59 139.325c-3.72-1.47-9.15-2.8-13.38-.55-.82-.91-1.62-1.83-2.39-2.78-.68-.83-1.33-1.71-1.95-2.63 0 0 6.19-.64 9.93-1.85 2.36 2.75 4.99 5.31 7.79 7.81z"/><path d="m352.55 123.565c-3.92 1.03-9.31 1.05-9.31 1.05-1.16-2.84-2.09-5.83-2.74-8.86 3.32 1.9 6.92 2.32 9.83 2.24.61 1.91 1.35 3.78 2.22 5.57z"/><path d="m287.34 149.905c-3.97-.76-6.15 2.44-7.29 5.29-1.84-2.79-3.2-5.81-3.68-8.88 4.16-.4 9.93 1.73 9.93 1.73z"/><path d="m288.51 136.445c-.59.72-1.11 1.5-1.58 2.36 0 0-5.79-1.56-9.24-1.48 1.48-3.67 3.48-6.58 5.88-8.86.48 2.52 1.72 5.93 4.94 7.98z"/></g><path d="m407.87 138.025-8.08 4.1c-.48-.67-1.06-1.24-1.73-1.72 2.4-2.66 2.54-6.19 2.05-9.11 3.31 1.43 5.94 3.7 7.76 6.73z" fill="#ffccb7"/></g><path d="m492.928 486.908h-473.856c-10.533 0-19.072-8.539-19.072-19.072 0-8.495 6.887-15.382 15.382-15.382h481.236c8.495 0 15.382 6.887 15.382 15.382 0 10.533-8.539 19.072-19.072 19.072z" fill="#a9cffc"/><path d="m300.67 452.454h-240.257c-9.514 0-17.227 7.713-17.227 17.227 0 9.514 7.713 17.227 17.227 17.227h240.257c9.514 0 17.227-7.713 17.227-17.227 0-9.514-7.713-17.227-17.227-17.227z" fill="#cbe1ff"/><path d="m175.274 452.454h-76.445c-9.514 0-17.227 7.713-17.227 17.227 0 9.514 7.713 17.227 17.227 17.227h76.445c9.514 0 17.227-7.713 17.227-17.227 0-9.514-7.712-17.227-17.227-17.227z" fill="#e3f0ff"/></g></svg>